<?xml version="1.0" encoding="UTF-8"?><svg id="Layer_2" xmlns="http://www.w3.org/2000/svg" viewBox="0 0 238.87 218.48"><defs><style>.cls-1{fill:#1374a5;}</style></defs><g id="graphics"><path class="cls-1" d="M221.9,141.13c-8.21-15.54-20.62-34.07-33.19-34.07-3.57,0-12.49,3.42-17.35,5.29-8.64-16.08-26.59-43.58-42.14-53.2-5.52-3.41-12.62-3.1-17.7-.6-7.99,3.93-17.13,13.18-25.86,24.76l9.33,7.11c7.71-10.25,15.49-18.22,21.73-21.29,1.31-.65,4.24-1.22,6.29.05,7.37,4.56,16.66,15.38,25.41,28.32-10.62,7.77-22.63,15.03-28.78,15.03-4.04,0-13.45-5.67-23.3-11.74-7.32-4.51-18.47-13.5-19.67-14.48-1.43-1.17-2.55-2.18-3.47-3.33-.81-1.02-1.68-2.8-.95-6.78,3.55-19.23,29.85-56.27,45.39-63.92.21-.1,1.21-.48,2.35-.48.74,0,1.35.15,1.86.47,15.41,9.54,42.69,47.13,44.98,65.76.6,4.89-1.29,5.43-3.28,7.24l6.42,9.94c2.44-2.12,4.17-3.73,4.89-4.46,3.18-3.27,4.42-8.03,3.67-14.15-2.71-22.08-32.39-63.16-50.47-74.35-2.4-1.48-5.11-2.23-8.06-2.23-3.82,0-6.75,1.29-7.56,1.69-18.56,9.14-47.6,49.72-51.78,72.36-1.31,7.08-.27,12.51,3.1,16.13,1.71,1.84,5.69,5.32,10.86,9.37-1.6,2.6-3.16,5.25-4.66,7.91-7.07,12.54-15.51,30.42-18.13,44.59-1.82,9.86-.73,16.78,3.33,21.16,6.53,7.03,20.86,11.22,36.75,13.37l1.38-11.7c-15.49-2.13-25.99-5.93-29.49-9.69-.75-.8-1.67-4.03-.38-11,1.44-7.81,4.87-17.25,9.46-26.99,11.86,5.28,23.83,11.92,26.85,17.17,3.36,5.82,1.2,34.55.54,41.15-.48,4.84-1.38,10.83-3.21,14.94-.83,1.86-9.01,6.22-30.07,6.22s-44.18-4.5-53.09-10.46c-.43-.29-2.17-1.85-2.11-3.64.31-10.25,6.73-29.15,15.61-45.96,10.68-20.24,19.63-27.76,22.76-27.78,2.41-.01,4.51,1.29,4.96,1.44l5.18-10.59c-3.44-1.2-5.97-1.98-7.04-2.26-14.63-3.72-29.22,20.31-36.28,33.69C7.04,159.94.38,180,0,192.24c-.2,6.43,3.83,11.45,7.34,13.8,12.78,8.55,39.88,12.45,59.65,12.45h0c16.81,0,37.63-2.52,41.33-14.54.8-2.6,1.93-8.46,2.91-15.71,18.93.76,58.77-.59,72.21-14.38,3.73-3.83,5.12-9.89,4.13-18.01-.9-7.34-3.72-16.35-7.76-25.9l-11.04,4.39c3.73,8.66,6.33,16.69,7.09,22.94.6,4.89-.09,7.55-.87,8.35-4.82,4.95-19.03,8.76-36.94,10.28-1.14-13.38-1.27-27.48,1.07-31.54,1.75-3.04,6.5-6.54,12.48-9.97,4.37-2.51,22.18-11.88,34.56-14.88,2.27-.55,4.71-.09,6.39,1.18,4.37,3.31,11.18,11.31,18.9,25.93,8.88,16.81,15.29,35.71,15.61,45.96.05,1.79-1.68,3.35-2.11,3.64-8.91,5.96-31.73,10.46-53.09,10.46s-29.47-4.27-30.07-6.22c-.43-1.39-.86-3.26-1.28-5.47l-11.75.73c.64,3.7,1.26,6.58,1.76,8.2,3.7,12.02,24.52,14.54,41.33,14.54,19.77,0,46.86-3.9,59.65-12.45,3.51-2.35,7.54-7.37,7.34-13.8-.38-12.23-7.04-32.29-16.96-51.1ZM128.93,138.49c-3.98,6.89-3.91,23.25-2.6,38.07-1.89.05-3.8.08-5.73.08h0c-2.76,0-5.44-.05-8.04-.14,1.3-14.8,1.36-31.13-2.61-38.01-4.69-8.13-18.75-15.95-31.76-21.72,1.86-3.43,3.83-6.84,5.87-10.17,12.47,8.87,27.35,17.71,35.6,17.71,9.5,0,23.52-8.46,35.1-16.94,1.91,3.15,3.76,6.36,5.52,9.58-12.89,5.75-26.69,13.49-31.34,21.53Z"/></g></svg>