<?xml version="1.0" encoding="UTF-8"?>
<svg id="Layer_2" xmlns="http://www.w3.org/2000/svg" version="1.1" xmlns:xlink="http://www.w3.org/1999/xlink" viewBox="0 0 335 100">
  <!-- Generator: Adobe Illustrator 29.4.0, SVG Export Plug-In . SVG Version: 2.1.0 Build 152)  -->
  <defs>
    <style>
      .st0 {
        fill: none;
      }

      .st1 {
        clip-path: url(#clippath-1);
      }

      .st2, .st3 {
        isolation: isolate;
      }

      .st3 {
        fill: #1a468c;
        font-family: OpenSans, 'Open Sans';
        font-size: 20.5px;
      }

      .st4 {
        clip-path: url(#clippath-3);
      }

      .st5 {
        fill: #0d4c94;
      }

      .st6 {
        clip-path: url(#clippath-2);
      }

      .st7 {
        fill: #faa41a;
      }

      .st8 {
        clip-path: url(#clippath);
      }
    </style>
    <clipPath id="clippath">
      <rect class="st0" x="161.3" y=".5" width="172.4" height="70.2"/>
    </clipPath>
    <clipPath id="clippath-1">
      <rect class="st0" x="161.3" y="1.7" width="170.6" height="69.8"/>
    </clipPath>
    <clipPath id="clippath-2">
      <rect class="st0" x="161.3" y="1.7" width="170.6" height="69.8"/>
    </clipPath>
    <clipPath id="clippath-3">
      <rect class="st0" x="161.3" y="1.7" width="170.6" height="69.8"/>
    </clipPath>
  </defs>
  <g id="Layer_1-2">
    <g class="st2">
      <text class="st3" transform="translate(1.4 73.5)"><tspan x="0" y="0">E</tspan></text>
    </g>
    <g class="st2">
      <text class="st3" transform="translate(12.1 73.5)"><tspan x="0" y="0">-</tspan></text>
    </g>
    <g class="st2">
      <text class="st3" transform="translate(18.9 73.5)"><tspan x="0" y="0">C</tspan></text>
    </g>
    <g class="st2">
      <text class="st3" transform="translate(31.4 73.5)"><tspan x="0" y="0">l</tspan></text>
    </g>
    <g class="st2">
      <text class="st3" transform="translate(36.5 73.5)"><tspan x="0" y="0">u</tspan></text>
    </g>
    <g class="st2">
      <text class="st3" transform="translate(48.6 73.5)"><tspan x="0" y="0">b</tspan></text>
    </g>
    <g class="st2">
      <text class="st3" transform="translate(65.7 73.5)"><tspan x="0" y="0">o</tspan></text>
    </g>
    <g class="st2">
      <text class="st3" transform="translate(77.8 73.5)"><tspan x="0" y="0">f</tspan></text>
    </g>
    <g class="st2">
      <text class="st3" transform="translate(89.6 73.5)"><tspan x="0" y="0">D</tspan></text>
    </g>
    <g class="st2">
      <text class="st3" transform="translate(104 73.5)"><tspan x="0" y="0">9</tspan></text>
    </g>
    <g class="st2">
      <text class="st3" transform="translate(115.8 73.5)"><tspan x="0" y="0">4</tspan></text>
    </g>
    <g class="st2">
      <text class="st3" transform="translate(127.5 73.5)"><tspan x="0" y="0">0</tspan></text>
    </g>
    <g class="st2">
      <text class="st3" transform="translate(139.3 73.5)"><tspan x="0" y="0">0</tspan></text>
    </g>
    <g class="st2">
      <text class="st3" transform="translate(155.8 73.5)"><tspan x="0" y="0">P</tspan></text>
    </g>
    <g class="st2">
      <text class="st3" transform="translate(166.5 73.5)"><tspan x="0" y="0">o</tspan></text>
    </g>
    <g class="st2">
      <text class="st3" transform="translate(178.6 73.5)"><tspan x="0" y="0">r</tspan></text>
    </g>
    <g class="st2">
      <text class="st3" transform="translate(185.9 73.5)"><tspan x="0" y="0">t</tspan></text>
    </g>
    <g class="st2">
      <text class="st3" transform="translate(193.3 73.5)"><tspan x="0" y="0">u</tspan></text>
    </g>
    <g class="st2">
      <text class="st3" transform="translate(205.4 73.5)"><tspan x="0" y="0">g</tspan></text>
    </g>
    <g class="st2">
      <text class="st3" transform="translate(217.6 73.5)"><tspan x="0" y="0">u</tspan></text>
    </g>
    <g class="st2">
      <text class="st3" transform="translate(229.7 73.5)"><tspan x="0" y="0">e</tspan></text>
    </g>
    <g class="st2">
      <text class="st3" transform="translate(240.8 73.5)"><tspan x="0" y="0">s</tspan></text>
    </g>
    <g class="st2">
      <text class="st3" transform="translate(249 73.5)"><tspan x="0" y="0">e</tspan></text>
    </g>
    <g class="st2">
      <text class="st3" transform="translate(18.6 94)"><tspan x="0" y="0">I</tspan></text>
    </g>
    <g class="st2">
      <text class="st3" transform="translate(24.1 94)"><tspan x="0" y="0">n</tspan></text>
    </g>
    <g class="st2">
      <text class="st3" transform="translate(36.2 94)"><tspan x="0" y="0">t</tspan></text>
    </g>
    <g class="st2">
      <text class="st3" transform="translate(43.6 94)"><tspan x="0" y="0">e</tspan></text>
    </g>
    <g class="st2">
      <text class="st3" transform="translate(54.6 94)"><tspan x="0" y="0">r</tspan></text>
    </g>
    <g class="st2">
      <text class="st3" transform="translate(61.9 94)"><tspan x="0" y="0">n</tspan></text>
    </g>
    <g class="st2">
      <text class="st3" transform="translate(74 94)"><tspan x="0" y="0">a</tspan></text>
    </g>
    <g class="st2">
      <text class="st3" transform="translate(85 94)"><tspan x="0" y="0">t</tspan></text>
    </g>
    <g class="st2">
      <text class="st3" transform="translate(92.4 94)"><tspan x="0" y="0">i</tspan></text>
    </g>
    <g class="st2">
      <text class="st3" transform="translate(97.4 94)"><tspan x="0" y="0">o</tspan></text>
    </g>
    <g class="st2">
      <text class="st3" transform="translate(109.6 94)"><tspan x="0" y="0">n</tspan></text>
    </g>
    <g class="st2">
      <text class="st3" transform="translate(121.8 94)"><tspan x="0" y="0">a</tspan></text>
    </g>
    <g class="st2">
      <text class="st3" transform="translate(132.7 94)"><tspan x="0" y="0">l</tspan></text>
    </g>
    <g class="st2">
      <text class="st3" transform="translate(137.8 94)"><tspan x="0" y="0">,</tspan></text>
    </g>
    <g class="st2">
      <text class="st3" transform="translate(147.3 94)"><tspan x="0" y="0">S</tspan></text>
    </g>
    <g class="st2">
      <text class="st3" transform="translate(157.8 94)"><tspan x="0" y="0">o</tspan></text>
    </g>
    <g class="st2">
      <text class="st3" transform="translate(169.9 94)"><tspan x="0" y="0">u</tspan></text>
    </g>
    <g class="st2">
      <text class="st3" transform="translate(182.1 94)"><tspan x="0" y="0">t</tspan></text>
    </g>
    <g class="st2">
      <text class="st3" transform="translate(189.5 94)"><tspan x="0" y="0">h</tspan></text>
    </g>
    <g class="st2">
      <text class="st3" transform="translate(206.3 94)"><tspan x="0" y="0">A</tspan></text>
    </g>
    <g class="st2">
      <text class="st3" transform="translate(220.4 94)"><tspan x="0" y="0">f</tspan></text>
    </g>
    <g class="st2">
      <text class="st3" transform="translate(227.4 94)"><tspan x="0" y="0">r</tspan></text>
    </g>
    <g class="st2">
      <text class="st3" transform="translate(234.7 94)"><tspan x="0" y="0">i</tspan></text>
    </g>
    <g class="st2">
      <text class="st3" transform="translate(239.8 94)"><tspan x="0" y="0">c</tspan></text>
    </g>
    <g class="st2">
      <text class="st3" transform="translate(249.1 94)"><tspan x="0" y="0">a</tspan></text>
    </g>
    <g class="st8">
      <g class="st1">
        <g class="st6">
          <g class="st4">
            <g>
              <path class="st5" d="M212,43.9v2.2c.1.3-.1.6-.4.7-.9.2-2.2.4-3,.4-4.1,0-5.3-1.5-5.3-6.6v-7.8h-1.6c-.4,0-.7-.3-.7-.7v-2.3c0-.4.3-.7.7-.7h1.6v-2.7c0-.3.2-.6.5-.6l2.7-.6c.2,0,.4,0,.6.1.2.1.3.3.3.5v3.4h4.1c.4,0,.7.3.7.7v2.3c0,.4-.3.7-.7.7h-4.1v7.2c0,2.5,0,3.3,1.8,3.3s1.6,0,2.2,0c.4,0,.7.3.7.6M199.3,37.8c0,6.4-2.4,9.3-7.9,9.3s-7.9-2.9-7.9-9.3,2.4-9.1,7.9-9.1,7.9,2.9,7.9,9.1M195.2,37.8c0-3.9-1.1-5.5-3.8-5.5s-3.9,1.4-3.9,5.5.6,5.6,3.9,5.6,3.8-2.1,3.8-5.6M259.3,29.4c-.1-.2-.3-.3-.5-.3h-2.6c-.3,0-.6.2-.6.5l-3.5,13.2h-.3l-3.5-13.2c0-.3-.3-.5-.6-.5h-2.6c-.2,0-.4,0-.5.3-.1.2-.2.4-.1.6l3.9,14.8c.2.7.9,2,2.2,2h.8c0,.2-.1.5-.2.7h0c-.2.8-.5,1.8-2.4,1.8l-3.3-.2c-.2,0-.4,0-.5.2-.1.1-.2.3-.2.5v1.8c0,.3.3.5.6.6,1,.2,2.9.5,4.4.6h.2c2.5,0,4.2-1.6,5.1-4.8,1-3.8,2.2-8.6,3.2-12.1.4-1.6.8-3,1-3.9l.5-1.9c0-.2,0-.4-.1-.6M181,45.8c0,.2,0,.4,0,.6-.1.2-.3.3-.6.3h-3.1c-.3,0-.5-.2-.6-.4l-4-9c-2,0-3.7-.1-4.6-.2v8.9c0,.4-.3.7-.7.7h-2.8c-.4,0-.7-.3-.7-.7v-22.5c0-.3.3-.6.6-.7,3.6-.4,6.4-.5,7.5-.5h.6c6.9,0,8.3,4.1,8.3,7.5s-1.4,4.9-4.1,6.3l4.3,9.7h0ZM172.5,26.3h-1.5c-1.6,0-2.6.1-3.1.2v6.9c.8,0,2.3.1,4.3.1,2.6,0,4.2-1.4,4.2-3.6s-1.1-3.6-4.1-3.6M228.4,34.7v11.7c0,.2,0,.4-.2.5-.1.1-.3.2-.5.2-1.4-.2-2-.6-2.7-1.1,0,0-3.1,1.2-5.8,1.2s-5.1-2-5.1-5.6,1.7-5,5.9-5.4l4.4-.3v-1.1c0-1.3-.8-2.1-2.2-2.1s-4.6.2-6.1.3c-.2,0-.4,0-.5-.2s-.2-.3-.2-.5v-2.2c0-.3.1-.6.5-.7,1.3-.2,4.6-.7,6.6-.7,4.1,0,6,1.9,6,6M220.5,39.1c-1.6.2-2.3.9-2.3,2.3s.2,2.3,1.8,2.3,4.4-.7,4.4-.7v-4l-3.9.2h0ZM241.4,29c-1.8.1-3.5,1.1-4.6,1.9v-1.1c0-.4-.3-.7-.7-.7h-2.7c-.4,0-.7.3-.7.7v16.3c0,.4.3.7.7.7h2.7c.4,0,.7-.3.7-.7v-11.2c.6-.5,2.5-1.9,4.7-2.1.3,0,.6-.3.6-.7v-2.4c0-.2,0-.4-.2-.5-.1-.1-.3-.2-.5-.2"/>
              <path class="st7" d="M284.6,52.5l-2.1,2.5-.6-.6,2.1-2.4c-.3-.3-.6-.6-.9-.9l.5-.5c.8.8,1.5,1.4,2.4,2.1l-.4.5c-.3-.3-.7-.5-1-.8M280.4,46.4l-3.4,2c.1.2.2.5.4.7l3.4-2c-.2-.3-.3-.5-.4-.7M282.6,49.5l-1.8,1.6.9-2.7c-.2-.2-.2-.4-.4-.6l-3.3,2.2c.1.2.3.4.5.7l2-1.4-.9,2.7c.2.2.3.5.5.6l3-2.6c-.2-.2-.4-.3-.5-.5M287,54.3c.5.3,1,.6,1.6.9l.4-.6c-.8-.4-1.5-.9-2.2-1.4l-2.2,3.2c.8.6,1.6,1,2.5,1.5l.4-.6-1.8-1,.6-.8,1.2.7.3-.5c-.4-.2-.8-.5-1.2-.7l.5-.7h0ZM297.9,42.2c-3.1,0-5.5-2.5-5.5-5.6s2.5-5.6,5.5-5.6,5.5,2.5,5.5,5.6-2.5,5.6-5.5,5.6M298,40.4c2,0,3.7-1.7,3.7-3.7s-1.2-3.2-2.8-3.6c0-.2,0-.9,0-.9h-1.9s0,.8,0,1c-1.5.5-2.6,1.9-2.6,3.5s1.7,3.7,3.7,3.7M289.9,15.7v-.2c0-1,.8-1.8,1.8-1.9,1.1-.1,2,.7,2.1,1.8v.2c0,1-.8,1.9-1.8,2-1,0-2-.7-2.1-1.8M290.6,15.6c0,.7.7,1.2,1.3,1.1.7,0,1.1-.6,1.1-1.2,0,0,0,0,0-.1,0-.7-.7-1.2-1.4-1.1-.7,0-1.1.6-1.1,1.2h0q0,.1,0,.1ZM298.7,16.5h-.8l1-2,.9-1.8h.9c0,0,.5,1.8.5,1.8l.6,2.3c-.3,0-.5-.1-.8-.1l-.2-.7c-.6,0-1.1-.1-1.6-.1l-.4.7h0ZM299.3,15.2c.4,0,.8,0,1.2.1l-.2-.8-.3-.8-.4.8-.4.7h0ZM295.4,13.5l.3,3.2h.8c0,0-.3-3.2-.3-3.2h1.3c0,0,0-.8,0-.8-1.4,0-2,.1-3.4.4v.7c0,0,1.3-.2,1.3-.2h0ZM295.6,56.6l-.3,2.4-1.1-2.6c-.3,0-.4-.1-.7-.2l-.9,3.8c.3,0,.5,0,.8.2l.5-2.4,1.2,2.6c.3,0,.6.1.9.1l.4-4c-.2,0-.5,0-.7,0M318.1,48.3l-2.9-1.6-.4.7,3.4,1.9,1.3-2.4-.6-.3-.9,1.7h0ZM313.8,48.9l3.9,1.3c0,.1-.2.2-.2.3,0,0-.1.2-.2.3l-.7-.2-1.1,1.3.4.6c-.2.2-.3.4-.5.6l-1.5-2.5-.6-.9.6-.7h0ZM314.3,49.8l.5.7.4.7.6-.7v-.2c.1,0-1.5-.5-1.5-.5ZM310.2,55c.2.3.2.6.3,1,0,.3,0,.5-.2.8-.2.4-.5.7-.8.9-.9.5-2.1.2-2.6-.7,0,0,0-.1,0-.2-.1-.2-.2-.5-.2-.8,0-.7.4-1.3,1-1.7.9-.5,2.1-.2,2.7.7M309.7,55.9c0-.2,0-.4-.2-.6-.3-.6-1.1-.8-1.7-.5-.4.2-.6.7-.6,1.1,0,.2,0,.4.2.6,0,0,0,.1.1.2.4.5,1,.5,1.5.3.1,0,.2-.2.3-.3.2-.2.3-.5.3-.8M311.6,51.3l1.6,1.7-2.7-.8c-.2.2-.4.2-.6.4l2.4,3.2c.2-.2.4-.3.6-.5l-1.4-1.9,2.7.8c.2-.2.5-.3.6-.6l-2.7-2.9c-.1.2-.3.4-.5.5M329,36.7c0,.4,0,.7,0,1h0c0,0,0,.1,0,.1-1.3.8-3,1.2-4.7,1.3,0,.2-.2,1.8-.3,2,1.6.5,3.1,1.3,4.2,2.4h0c0,.8-.3,1.6-.5,2.1h0c0,0,0,0,0,0-1.5.4-3.2.4-4.9,0,0,.2-.7,1.6-.7,1.8,1.4.9,2.7,2.1,3.4,3.5h0c0,0,0,.2,0,.2-.2.5-.6,1.3-1,1.8h0c0,0,0,0,0,0-1.5,0-3.2-.4-4.7-1.3-.1.2-1.1,1.5-1.3,1.7,1.2,1.2,2.1,2.7,2.4,4.2h0c0,0,0,.1,0,.1-.3.5-1,1.1-1.4,1.4h0s-.1,0-.1,0c-1.5-.4-3-1.3-4.2-2.4-.2.1-1.4,1.1-1.6,1.2.8,1.4,1.3,3.1,1.3,4.6v.2h0c-.5.4-1.2.8-1.8,1.1h0s0,0,0,0c-1.3-.8-2.6-2-3.5-3.5-.2,0-1.7.7-1.9.8.2.8.3,1.6.4,2.5,0,.8-.1,1.7-.4,2.4h0c0,0,0,.1,0,.1-.5.2-1.4.4-1.9.5h-.1c-1.1-1.1-2-2.7-2.5-4.3-.2,0-1.8.2-2,.3,0,1.7-.5,3.4-1.3,4.7h0c0,0,0,0,0,0-.5,0-1.4,0-2,0h-.1c-.8-1.4-1.2-3.1-1.3-4.8-.2,0-1.9-.3-2.1-.3-.5,1.6-1.3,3.1-2.4,4.2h0c0,0,0,0,0,0-.6,0-1.4-.3-1.9-.6h0s0,0,0,0c-.2-.8-.3-1.6-.3-2.4s.1-1.6.3-2.4c-.2,0-1.6-.7-1.8-.8-.9,1.5-2.1,2.7-3.5,3.5h0s0,0,0,0c-.5-.2-1.3-.7-1.8-1h0v-.2c0-1.5.5-3.2,1.2-4.7-.2-.1-1.5-1.1-1.7-1.3-1.2,1.2-2.8,2-4.2,2.4h0s0,0,0,0c-.5-.4-1-1-1.4-1.4h0c0,0,0-.2,0-.2.4-1.5,1.3-3,2.4-4.2-.1-.2-1.1-1.5-1.3-1.7-1.5.8-3.2,1.3-4.7,1.3h-.1c-.4-.5-.8-1.3-1-1.8h0c0,0,0-.2,0-.2.8-1.3,2-2.6,3.5-3.4,0-.2-.7-1.7-.8-1.9-1.6.4-3.4.4-4.9,0h0s0,0,0,0c-.2-.5-.4-1.3-.5-1.9h0c0,0,0-.2,0-.2,1.1-1.1,2.6-2,4.2-2.5,0-.2-.3-1.9-.3-2.1-1.7,0-3.4-.5-4.7-1.2h0c0-.4,0-.8,0-1.1s0-.7,0-1h0c0,0,0-.1,0-.1,1.3-.8,3-1.2,4.7-1.3,0-.2.2-1.8.3-2-1.6-.5-3.1-1.3-4.2-2.5h0s0-.1,0-.1c0-.6.3-1.4.5-1.9h0c0,0,0,0,0,0,1.5-.4,3.2-.4,4.9,0,0-.2.7-1.6.8-1.9-1.4-.9-2.7-2.1-3.5-3.5h0c0,0,0-.2,0-.2.2-.5.7-1.3,1-1.7h0c0,0,0,0,0,0,1.5,0,3.2.5,4.7,1.3.1-.2,1.1-1.5,1.3-1.7-1.2-1.2-2-2.7-2.4-4.2h0c0,0,0-.1,0-.1.4-.5,1-1.1,1.4-1.4h0c0,0,0,0,0,0,1.5.4,3,1.3,4.2,2.5.2-.1,1.4-1.1,1.5-1.2-.8-1.4-1.3-3.1-1.3-4.6v-.2h0c.5-.4,1.2-.8,1.7-1.1h0s0,0,0,0c1.3.8,2.6,2,3.5,3.4.2,0,1.8-.8,2-.8-.2-.8-.3-1.6-.3-2.5,0-.9.1-1.7.3-2.4h0c0,0,0-.1,0-.1.5-.2,1.3-.4,1.9-.5h.2c1.1,1.1,2,2.7,2.5,4.3.2,0,1.9-.2,2.1-.3,0-1.7.5-3.4,1.3-4.7h0c0,0,0,0,0,0,.6,0,1.4,0,2,0h0s0,0,0,0c.8,1.3,1.3,3,1.3,4.7.2,0,1.8.3,2.1.3.5-1.6,1.4-3.2,2.5-4.2h0c0,0,0,0,0,0,.6,0,1.4.3,2,.5h0s0,.1,0,.1c.2.7.3,1.6.3,2.4,0,.8-.1,1.7-.3,2.5.2,0,1.8.7,2,.8.9-1.4,2.1-2.7,3.4-3.4h0s0,0,0,0c.5.2,1.3.6,1.7,1h0v.2c0,1.5-.5,3.2-1.3,4.6.2.1,1.5,1.1,1.6,1.3,1.2-1.2,2.7-2.1,4.2-2.4h0s0,0,0,0c.5.3,1.1,1,1.4,1.4h0c0,0,0,.1,0,.1-.4,1.5-1.3,3-2.5,4.2.1.2,1.1,1.5,1.2,1.6,1.5-.8,3.2-1.3,4.7-1.2h.1c.4.5.8,1.3,1,1.8h0c0,.1,0,.2,0,.2-.8,1.3-2,2.6-3.5,3.4,0,.2.7,1.7.8,1.9,1.6-.4,3.4-.4,4.9,0h0s0,.1,0,.1c.2.5.4,1.3.5,2h0c0,0,0,.1,0,.1-1.1,1.1-2.6,2-4.2,2.5,0,.2.2,1.8.3,2,1.7,0,3.4.5,4.7,1.3h0c0,.4,0,.8,0,1.1M282.4,18.6l2.5,2.8c.4.4.8.3,1.3,0,3.2-2.5,7.4-4,11.8-4s8.5,1.5,11.8,4c.5.4.9.5,1.3,0l2.5-2.8c.3-.3.3-.8-.3-1.2-4.3-3.3-9.5-5.4-15.4-5.4s-11.1,2.1-15.3,5.4c-.5.5-.5.9-.2,1.2M282.6,30.5c-.3-.2-.6-.4-.8-.3-.2,0-.4.3-.5.6-1.2,4.1-1.2,7.6,0,11.6,0,.3.2.5.4.6.2,0,.5,0,.9-.3l7.9-5.4c.3-.2.5-.5.5-.8s-.2-.6-.5-.8l-7.9-5.4h0ZM284.3,25.8c0,.3.4.4.6.6l8.6,4.2c.3.2.7.2.9,0,.2-.2.4-.4.4-.8l.7-9.5c0-.5,0-.7-.2-.9-.2-.2-.5-.1-.7,0-4.1,1-7.1,2.7-10.1,5.8-.2.3-.4.5-.3.7M284.4,47.6c0,.2.1.4.3.6,3,3.1,6,4.8,10.1,5.8.3,0,.5.1.7,0,.2-.1.2-.4.2-.9,0,0-.7-9.6-.7-9.6,0-.4-.2-.6-.4-.8-.3-.2-.6-.2-.9,0l-8.6,4.2c-.3.1-.6.3-.7.6h0M297.9,42.8c3.4,0,6.2-2.8,6.2-6.2s-2.8-6.2-6.2-6.2c-3.4,0-6.2,2.8-6.2,6.2s2.8,6.2,6.2,6.2M300.6,53.8c.1.1.4.2.8,0,4.1-1,7.1-2.7,10-5.8.2-.2.4-.4.3-.6,0-.2-.2-.4-.6-.6l-8.6-4.2c-.3-.2-.6-.2-.9,0-.2.2-.4.4-.4.8l-.7,9.5c0,.3,0,.7.2.9M313.4,42.7c.3.2.5.4.8.3.2,0,.3-.3.4-.6,1.2-4.1,1.2-7.6,0-11.6,0-.2-.2-.5-.4-.6-.2,0-.5,0-.9.3l-7.9,5.4c-.3.2-.5.5-.5.8s.2.6.5.8l7.9,5.4h0ZM311.6,25.6c0-.2,0-.4-.3-.6-2.9-3.1-5.9-4.8-10.1-5.8-.2,0-.5-.1-.7,0-.2.1-.2.4-.2.9l.7,9.6c0,.4.2.6.4.8.3.1.6.1.9,0l8.6-4.1c.3-.1.6-.3.6-.6,0,0,0,0,0,0M274.9,42.7l3.7-1.1c.3,0,.6-.5.6-.9-1.3-6.8.4-12.4,4.4-16.8.4-.3.5-.9,0-1.3l-2.7-2.7c-.3-.3-.7-.3-1.1.1-5.1,5.4-7.7,13.6-5.8,22,.1.4.4.7.9.6M320.4,44.7l-3.7-1.2c-.2,0-.7,0-1,.6-3,7.1-9.9,12-17.9,12s-15-5-17.9-12.1c-.2-.5-.7-.5-.9-.5l-3.6,1.2c-.4.1-.6.5-.4,1,3.6,9.1,12.5,15.6,22.9,15.6s19.3-6.5,22.9-15.7c.2-.5,0-.8-.4-1M316.2,20.1c-.4-.4-1-.4-1.1,0l-2.6,2.7c-.4.4-.4,1,0,1.3,4,4.4,5.7,10,4.4,16.8,0,.5.2.8.6.9l3.7,1.1c.5.1.8-.2.9-.6,1.9-8.4-.7-16.7-5.8-22.1M307.6,19.1l.9-1.6,2.3-1.1c-.2-.2-.5-.3-.7-.4l-1.6.7-.3-1.7c-.3-.2-.5-.2-.9-.4l.5,2.5-.9,1.6.7.4h0ZM303.4,56c-1.1.2-2,.5-3.1.6v.7c.5,0,.9-.1,1.3-.2l.6,3.2.8-.2-.7-3.2c.4-.1.8-.2,1.2-.3l-.2-.7h0ZM292.2,56.5v.2c0,.5-.4,1-1,1.1v1.8c-.1,0-.4-.2-.7-.3v-1.7s-.8-.3-.8-.3l-.6,1.5c-.2,0-.5-.2-.8-.3l.8-1.8v-.2c0,0,.7-1.5.7-1.5l1.8.7c.4.1.6.5.6.8M291.5,56.5c0-.1,0-.2-.2-.3l-1-.4-.2.6v.2h0l.9.3c.2.1.5-.1.6-.3,0,0,0-.2,0-.2M303.4,17.3c-.3,0-.5-.1-.9-.2l.6-2.2.5-1.5c.7.2,1.3.4,1.9.6.4.1.5.5.6.9,0,.6-.3,1.2-.9,1.4l.2,1.7c-.3-.1-.5-.2-.8-.3l-.2-1.5-.8-.2-.4,1.4h0ZM303.9,15.2l.9.3c.2,0,.6-.3.6-.6s0-.3-.3-.3c-.3-.1-.5-.2-.9-.3l-.2.6s0,.4,0,.4ZM299.6,58.4l.9,2c-.3,0-.5,0-.8,0l-.3-.7h-1.7s-.2.7-.2.7c-.3,0-.5,0-.8,0l.7-2.2.5-1.6h0s.9,0,.9,0h0c0,0,.7,1.7.7,1.7h0ZM299.1,59.1l-.3-.8-.3-.8-.3.8-.3.8h1.1s0,0,0,0ZM304.3,55.6l1.3,3.7c.2,0,.5-.2.8-.3l-1.2-3.7c-.3.1-.5.2-.8.3M285.5,16.7l-.2-.4c.6-.4,1.2-.7,1.8-1,.7-.4,1.7.5,1.6,1.4,0,.1,0,.3-.1.4l1.4,1c-.3.1-.5.2-.8.4l-1.2-.9-.7.4.7,1.2c-.3.2-.5.3-.8.5,0,0-1.7-3-1.7-3ZM286.4,16.5v.2c.1,0,.5.7.5.7l.8-.4c0,0,.1-.1.1-.2,0-.4-.2-.9-.6-.6-.3.2-.5.3-.8.4"/>
              <path class="st7" d="M322.5,61.6h.2c.4,0,.6,0,.6,0,0,0,.1,0,.2-.1,0,0,0-.1,0-.2s0-.2,0-.2c0,0-.1-.1-.2-.1,0,0-.3,0-.6,0h-.2v.8h0ZM321.9,63.3v-3h1.6c.2,0,.4,0,.5.1.1,0,.2.2.3.3,0,.1.1.3.1.4,0,.2,0,.4-.2.5-.1.2-.3.2-.6.3,0,0,.2,0,.2.1s.1.1.2.2c0,0,0,.1.2.3l.4.6h-.7l-.2-.5c-.2-.3-.3-.5-.4-.6-.1,0-.2-.1-.4-.1h-.1v1.2h-.6ZM323.1,59.5c-.4,0-.8,0-1.1.3-.4.2-.6.5-.8.8-.2.4-.3.7-.3,1.1s.1.8.3,1.1c.2.3.5.6.8.8s.7.3,1.1.3.8,0,1.1-.3c.4-.2.6-.5.8-.8.2-.3.3-.7.3-1.1s-.1-.8-.3-1.1c-.2-.4-.5-.6-.8-.8-.4-.2-.7-.3-1.1-.3M323.1,59c.5,0,.9.1,1.4.4s.8.6,1,1c.2.4.4.9.4,1.4s-.1,1-.4,1.4-.6.8-1,1c-.4.2-.9.4-1.4.4s-.9-.1-1.4-.4c-.4-.2-.8-.6-1-1s-.4-.9-.4-1.4.1-1,.4-1.4c.2-.5.6-.8,1-1,.4-.2.9-.4,1.4-.4"/>
            </g>
          </g>
        </g>
      </g>
    </g>
  </g>
</svg>