<?xml version="1.0" encoding="UTF-8"?><svg id="Layer_2" xmlns="http://www.w3.org/2000/svg" xmlns:xlink="http://www.w3.org/1999/xlink" viewBox="0 0 266 102.57"><defs><style>.cls-1{fill:#1a468c;font-family:NeueFrutigerWorld-Light, 'Neue Frutiger World';font-size:20.5px;font-weight:300;}.cls-2{fill:none;}.cls-3{fill:#0d4c94;}.cls-4{clip-path:url(#clippath-1);}.cls-5{clip-path:url(#clippath-3);}.cls-6{fill:#faa41a;}.cls-7{clip-path:url(#clippath-2);}.cls-8{clip-path:url(#clippath);}</style><clipPath id="clippath"><rect class="cls-2" x="93.66" width="172.35" height="70.25"/></clipPath><clipPath id="clippath-1"><rect class="cls-2" x="93.66" y="1.25" width="170.6" height="69.79"/></clipPath><clipPath id="clippath-2"><rect class="cls-2" x="93.66" y="1.25" width="170.6" height="69.79"/></clipPath><clipPath id="clippath-3"><rect class="cls-2" x="93.66" y="1.25" width="170.6" height="69.79"/></clipPath></defs><g id="Layer_1-2"><text class="cls-1" transform="translate(0 73.01)"><tspan x="0" y="0">E</tspan></text><text class="cls-1" transform="translate(10.76 73.01)"><tspan x="0" y="0">-</tspan></text><text class="cls-1" transform="translate(17.51 73.01)"><tspan x="0" y="0">C</tspan></text><text class="cls-1" transform="translate(30.07 73.01)"><tspan x="0" y="0">l</tspan></text><text class="cls-1" transform="translate(35.12 73.01)"><tspan x="0" y="0">u</tspan></text><text class="cls-1" transform="translate(47.25 73.01)"><tspan x="0" y="0">b</tspan></text><text class="cls-1" transform="translate(59.53 73.01)"><tspan x="0" y="0"> </tspan></text><text class="cls-1" transform="translate(64.29 73.01)"><tspan x="0" y="0">o</tspan></text><text class="cls-1" transform="translate(76.44 73.01)"><tspan x="0" y="0">f</tspan></text><text class="cls-1" transform="translate(83.46 73.01)"><tspan x="0" y="0"> </tspan></text><text class="cls-1" transform="translate(88.21 73.01)"><tspan x="0" y="0">P</tspan></text><text class="cls-1" transform="translate(98.83 73.01)"><tspan x="0" y="0">o</tspan></text><text class="cls-1" transform="translate(110.99 73.01)"><tspan x="0" y="0">r</tspan></text><text class="cls-1" transform="translate(118.26 73.01)"><tspan x="0" y="0">t</tspan></text><text class="cls-1" transform="translate(125.64 73.01)"><tspan x="0" y="0">u</tspan></text><text class="cls-1" transform="translate(137.78 73.01)"><tspan x="0" y="0">g</tspan></text><text class="cls-1" transform="translate(149.96 73.01)"><tspan x="0" y="0">u</tspan></text><text class="cls-1" transform="translate(162.09 73.01)"><tspan x="0" y="0">e</tspan></text><text class="cls-1" transform="translate(173.14 73.01)"><tspan x="0" y="0">s</tspan></text><text class="cls-1" transform="translate(181.4 73.01)"><tspan x="0" y="0">e</tspan></text><text class="cls-1" transform="translate(192.45 73.01)"><tspan x="0" y="0"> </tspan></text><text class="cls-1" transform="translate(4.53 93.51)"><tspan x="0" y="0">F</tspan></text><text class="cls-1" transform="translate(14.12 93.51)"><tspan x="0" y="0">o</tspan></text><text class="cls-1" transform="translate(26.28 93.51)"><tspan x="0" y="0">r</tspan></text><text class="cls-1" transform="translate(33.56 93.51)"><tspan x="0" y="0">u</tspan></text><text class="cls-1" transform="translate(45.69 93.51)"><tspan x="0" y="0">m</tspan></text><text class="cls-1" transform="translate(63.75 93.51)"><tspan x="0" y="0">,</tspan></text><text class="cls-1" transform="translate(68.55 93.51)"><tspan x="0" y="0"> </tspan></text><text class="cls-1" transform="translate(73.31 93.51)"><tspan x="0" y="0">I</tspan></text><text class="cls-1" transform="translate(78.74 93.51)"><tspan x="0" y="0">n</tspan></text><text class="cls-1" transform="translate(90.88 93.51)"><tspan x="0" y="0">t</tspan></text><text class="cls-1" transform="translate(98.26 93.51)"><tspan x="0" y="0">e</tspan></text><text class="cls-1" transform="translate(109.31 93.51)"><tspan x="0" y="0">r</tspan></text><text class="cls-1" transform="translate(116.58 93.51)"><tspan x="0" y="0">n</tspan></text><text class="cls-1" transform="translate(128.72 93.51)"><tspan x="0" y="0">a</tspan></text><text class="cls-1" transform="translate(139.71 93.51)"><tspan x="0" y="0">t</tspan></text><text class="cls-1" transform="translate(147.09 93.51)"><tspan x="0" y="0">i</tspan></text><text class="cls-1" transform="translate(152.13 93.51)"><tspan x="0" y="0">o</tspan></text><text class="cls-1" transform="translate(164.29 93.51)"><tspan x="0" y="0">n</tspan></text><text class="cls-1" transform="translate(176.42 93.51)"><tspan x="0" y="0">a</tspan></text><text class="cls-1" transform="translate(187.41 93.51)"><tspan x="0" y="0">l</tspan></text><g class="cls-8"><g class="cls-4"><g class="cls-7"><g class="cls-5"><path class="cls-3" d="M144.36,43.39l.11,2.21c.02.33-.22.63-.54.69-.93.17-2.22.38-3.03.38-4.06,0-5.29-1.55-5.29-6.63v-7.76h-1.55c-.37,0-.67-.3-.67-.67v-2.3c0-.37.3-.67.67-.67h1.55v-2.73c0-.31.21-.58.51-.65l2.69-.65c.2-.05.41,0,.57.12.16.13.26.32.26.53v3.39h4.09c.37,0,.67.3.67.67v2.3c0,.37-.3.67-.67.67h-4.09v7.2c0,2.49.09,3.35,1.83,3.35.64,0,1.65-.05,2.19-.07.36,0,.68.26.7.63M131.66,37.36c0,6.41-2.44,9.27-7.9,9.27s-7.94-2.86-7.94-9.27,2.45-9.14,7.94-9.14,7.9,2.9,7.9,9.14M127.57,37.36c0-3.94-1.07-5.47-3.81-5.47s-3.85,1.43-3.85,5.47c0,3.66.61,5.64,3.85,5.64s3.81-2.07,3.81-5.64M191.7,28.9c-.12-.16-.32-.26-.53-.26h-2.61c-.3,0-.57.2-.65.49l-3.5,13.19h-.27l-3.5-13.19c-.08-.29-.34-.49-.65-.49h-2.6c-.21,0-.4.09-.53.26-.13.16-.17.38-.12.57l3.85,14.79c.19.73.87,1.98,2.21,1.98h.75c-.06.25-.13.51-.21.74l-.03.11c-.21.68-.52,1.71-2.43,1.71l-3.33-.2c-.19-.02-.37.05-.5.19-.14.14-.21.32-.2.51l.08,1.75c.01.29.22.54.51.62.98.24,2.86.53,4.4.59.07,0,.14,0,.21,0,2.51,0,4.22-1.63,5.08-4.83,1-3.75,2.25-8.57,3.16-12.1.41-1.59.77-2.95,1.02-3.93l.5-1.92c.05-.2,0-.41-.12-.58M113.37,45.31c.09.21.07.44-.05.63-.13.19-.33.3-.56.3h-3.12c-.26,0-.51-.16-.61-.4l-4-8.99c-1.99-.01-3.71-.12-4.64-.19v8.91c0,.37-.3.67-.67.67h-2.79c-.37,0-.67-.3-.67-.67v-22.55c0-.34.26-.63.6-.66,3.58-.4,6.44-.45,7.51-.45.37,0,.56,0,.56,0,6.87,0,8.31,4.06,8.31,7.45,0,2.84-1.36,4.89-4.14,6.27l4.28,9.67ZM104.91,25.79h-1.47c-1.64,0-2.58.12-3.05.22v6.95c.78.05,2.29.14,4.33.11,2.62-.03,4.25-1.42,4.25-3.63,0-1.77-1.06-3.65-4.05-3.65M160.76,34.18v11.67c0,.19-.08.38-.23.5-.15.13-.34.19-.53.16-1.37-.19-2.02-.62-2.66-1.11-.03.01-3.05,1.23-5.75,1.23-3.25,0-5.12-2.05-5.12-5.64s1.71-5.05,5.89-5.36l4.37-.35v-1.06c0-1.34-.8-2.12-2.19-2.12-1.91,0-4.65.23-6.11.35-.18.02-.37-.04-.5-.16-.13-.12-.22-.29-.23-.47l-.09-2.23c-.01-.34.23-.64.56-.69,1.3-.21,4.55-.68,6.57-.68,4.09,0,6,1.9,6,5.96M152.86,38.62c-1.58.15-2.33.87-2.33,2.26,0,.85.24,2.3,1.8,2.3,1.86,0,4.38-.7,4.41-.71v-4.05l-3.88.21ZM173.81,28.51c-1.78.11-3.52,1.12-4.61,1.89v-1.09c0-.37-.3-.67-.67-.67h-2.68c-.37,0-.67.3-.67.67v16.27c0,.37.3.67.67.67h2.68c.37,0,.67-.3.67-.67v-11.24c.61-.5,2.48-1.91,4.72-2.11.34-.03.61-.32.61-.67v-2.38c0-.19-.07-.36-.21-.48-.13-.13-.32-.2-.5-.18"/><path class="cls-6" d="M216.96,51.98l-2.07,2.45-.64-.56,2.14-2.38c-.34-.31-.6-.6-.93-.89l.48-.48c.81.77,1.53,1.37,2.43,2.09l-.41.53c-.33-.26-.66-.5-.99-.76M212.81,45.88l-3.36,1.96c.12.23.25.51.4.74l3.36-1.96c-.16-.3-.26-.45-.4-.73M214.96,49.01l-1.82,1.57.93-2.69c-.16-.23-.24-.39-.41-.6l-3.26,2.21c.15.22.32.42.48.65l1.96-1.36-.92,2.71c.16.18.32.45.54.64l3.01-2.58c-.17-.18-.37-.34-.52-.54M219.39,53.82c.53.29,1.05.59,1.63.86l.35-.57c-.8-.41-1.55-.89-2.23-1.36l-2.21,3.25c.84.56,1.61,1.02,2.47,1.52l.36-.57-1.78-1.05.6-.85,1.18.71.34-.55c-.38-.21-.78-.45-1.19-.7l.49-.68ZM230.33,41.72c-3.06,0-5.55-2.51-5.55-5.56s2.5-5.57,5.55-5.57,5.55,2.49,5.55,5.57-2.49,5.56-5.55,5.56M230.39,39.88c2.03,0,3.7-1.67,3.7-3.7,0-1.69-1.17-3.15-2.79-3.56-.02-.17-.07-.94-.07-.94h-1.86s-.04.84-.06,1c-1.55.47-2.59,1.88-2.59,3.49,0,2.03,1.67,3.7,3.67,3.7M222.23,15.18v-.18c-.02-1.01.75-1.83,1.76-1.91,1.07-.1,2.02.68,2.11,1.76v.16c0,1-.76,1.86-1.79,1.96-1.04.09-2-.69-2.09-1.77M222.94,15.11c.05.69.67,1.2,1.33,1.14.66-.07,1.15-.59,1.15-1.25.02-.03,0-.07,0-.11-.06-.7-.66-1.18-1.35-1.12-.66.05-1.15.57-1.13,1.23v.11ZM231.03,16.07c-.33,0-.48,0-.8,0l.97-2.01.88-1.83.87.09.46,1.74.63,2.33c-.29-.05-.52-.1-.8-.12l-.23-.73c-.58-.09-1.1-.12-1.63-.14l-.36.67ZM231.68,14.75c.42.02.82.07,1.21.12l-.21-.81-.26-.84-.39.84-.35.69ZM227.81,13.01l.34,3.18.84-.09-.33-3.16,1.26-.08-.05-.71c-1.41.08-1.99.14-3.39.35l.09.67,1.23-.17ZM227.94,56.08l-.28,2.37-1.14-2.6c-.27-.05-.43-.12-.7-.16l-.9,3.84c.28.07.54.1.83.15l.48-2.36,1.16,2.63c.26.04.56.12.87.11l.43-3.97c-.22-.01-.49.02-.73-.02M250.5,47.84l-2.85-1.57-.36.66,3.42,1.91,1.32-2.36-.59-.31-.94,1.68ZM246.2,48.41l3.88,1.28c-.09.12-.16.23-.25.34-.07.09-.15.18-.2.29l-.68-.24-1.06,1.32.39.61c-.16.18-.34.38-.54.57l-1.54-2.55-.57-.94.56-.68ZM246.64,49.3l.46.73.42.73.57-.73.15-.18-1.6-.55ZM242.56,54.49c.17.29.25.63.26.97,0,.27-.06.54-.17.79-.18.36-.45.69-.83.9-.91.53-2.09.21-2.64-.72-.02-.05-.04-.11-.08-.18-.11-.25-.16-.53-.19-.79.02-.69.36-1.33.98-1.69.93-.53,2.12-.21,2.67.72M242.12,55.46c0-.23-.06-.44-.17-.64-.32-.6-1.09-.8-1.69-.45-.42.23-.64.66-.64,1.1.01.2.06.43.18.62.03.06.07.12.13.19.38.45,1.04.55,1.55.26.14-.07.25-.16.34-.26.19-.23.29-.53.29-.81M243.99,50.82l1.62,1.74-2.71-.8c-.23.17-.38.23-.58.41l2.36,3.17c.2-.16.41-.35.6-.51l-1.43-1.91,2.74.82c.19-.16.46-.35.64-.58l-2.73-2.89c-.15.16-.31.37-.5.54M261.37,36.19c0,.36-.02.72-.06,1.01v.08s-.09.04-.09.04c-1.32.79-3.02,1.23-4.73,1.28-.04.22-.23,1.76-.26,1.98,1.59.46,3.14,1.33,4.22,2.44l.04.07v.07c-.08.61-.3,1.42-.54,1.95l-.03.08h-.08c-1.49.44-3.25.43-4.88.02-.08.2-.68,1.64-.74,1.85,1.43.9,2.69,2.14,3.4,3.47l.04.07-.02.08c-.22.53-.64,1.29-1.01,1.75l-.04.07h-.09c-1.53.02-3.23-.44-4.72-1.26-.13.18-1.13,1.49-1.26,1.67,1.17,1.21,2.06,2.74,2.42,4.24l.02.08-.04.05c-.34.46-.97,1.07-1.42,1.44l-.05.05-.11-.02c-1.47-.39-3.02-1.28-4.22-2.44-.18.13-1.41,1.1-1.59,1.23.79,1.44,1.27,3.1,1.27,4.6v.21l-.09.05c-.45.37-1.21.8-1.75,1.02l-.05.02-.09-.03c-1.32-.77-2.59-2.02-3.45-3.46-.21.09-1.71.73-1.91.82.2.8.33,1.64.35,2.47,0,.84-.14,1.67-.35,2.43v.07s-.09.04-.09.04c-.5.21-1.35.42-1.94.52h-.09s-.05-.05-.05-.05c-1.14-1.08-2.01-2.62-2.47-4.23-.2.02-1.75.23-1.97.27-.03,1.69-.49,3.4-1.29,4.72l-.04.07h-.09c-.54.09-1.4.09-1.99.01h-.07s-.05-.08-.05-.08c-.78-1.33-1.24-3.03-1.28-4.72-.23-.02-1.87-.26-2.09-.27-.45,1.6-1.33,3.13-2.43,4.22l-.06.06h-.09c-.61-.1-1.4-.34-1.94-.56l-.06-.03-.03-.07c-.23-.75-.34-1.6-.34-2.43s.12-1.64.32-2.44c-.21-.09-1.62-.66-1.83-.75-.87,1.46-2.14,2.73-3.47,3.47l-.07.04-.08-.02c-.55-.25-1.28-.66-1.75-1.02l-.06-.06v-.16c0-1.52.46-3.19,1.25-4.65-.17-.14-1.49-1.14-1.68-1.27-1.21,1.16-2.75,2.04-4.23,2.42l-.08.02-.08-.05c-.45-.37-1.04-.96-1.41-1.42l-.05-.08.02-.08c.4-1.5,1.29-3.03,2.44-4.22-.13-.18-1.13-1.47-1.27-1.67-1.47.82-3.19,1.3-4.72,1.26h-.08l-.05-.05c-.36-.47-.78-1.23-1.01-1.76l-.03-.08.03-.07c.77-1.34,2.02-2.59,3.46-3.44-.09-.22-.7-1.67-.81-1.87-1.63.41-3.4.42-4.89,0l-.07-.02-.04-.07c-.2-.5-.42-1.35-.51-1.94l-.02-.09.05-.07c1.08-1.1,2.61-1.98,4.24-2.46-.02-.23-.26-1.87-.28-2.1-1.7-.02-3.41-.46-4.74-1.25l-.07-.04v-.09c-.04-.28-.05-.64-.05-1s.01-.71.05-1.01v-.09s.07-.04.07-.04c1.33-.78,3.04-1.24,4.74-1.26.03-.22.24-1.82.26-2.04-1.61-.46-3.15-1.34-4.24-2.45l-.04-.05.02-.09c.07-.61.3-1.43.53-1.94l.03-.07.08-.02c1.47-.43,3.25-.42,4.89-.02.09-.2.69-1.64.78-1.86-1.44-.87-2.71-2.12-3.47-3.46l-.04-.09.04-.08c.24-.54.66-1.27,1-1.73l.06-.07h.09c1.54-.02,3.25.45,4.72,1.26.14-.16,1.14-1.52,1.28-1.7-1.16-1.21-2.05-2.74-2.43-4.24l-.02-.06.03-.07c.37-.47.99-1.07,1.44-1.43l.07-.05h.07c1.52.4,3.05,1.3,4.24,2.46.17-.14,1.37-1.06,1.54-1.19-.82-1.44-1.28-3.11-1.28-4.6v-.22l.08-.05c.45-.35,1.2-.78,1.74-1l.06-.04.09.04c1.33.75,2.58,2.01,3.45,3.45.21-.08,1.76-.75,1.97-.84-.2-.8-.33-1.63-.32-2.46,0-.86.1-1.67.33-2.42v-.09s.09-.02.09-.02c.5-.21,1.34-.43,1.92-.52h.09s.07.05.07.05c1.11,1.08,1.99,2.62,2.45,4.24.23-.02,1.86-.23,2.08-.27.04-1.67.49-3.38,1.29-4.71l.03-.07.08-.02c.58-.07,1.44-.07,2.01,0l.07.02.05.07c.8,1.33,1.27,3.04,1.27,4.69.24.05,1.84.26,2.06.28.48-1.63,1.35-3.15,2.47-4.23l.05-.05.07.02c.61.07,1.43.29,1.96.52l.06.03.03.09c.23.74.34,1.56.34,2.4-.01.83-.14,1.67-.34,2.47.2.08,1.75.73,1.97.82.86-1.44,2.09-2.69,3.44-3.45l.08-.04.08.04c.53.23,1.28.65,1.73,1.01l.07.04v.21c0,1.53-.47,3.19-1.27,4.61.17.13,1.45,1.13,1.64,1.28,1.2-1.17,2.74-2.07,4.24-2.44l.07-.04.07.07c.45.34,1.07.97,1.41,1.43l.06.07-.03.08c-.38,1.51-1.29,3.04-2.45,4.24.13.18,1.1,1.45,1.25,1.64,1.5-.81,3.2-1.27,4.74-1.24h.07l.05.07c.37.48.8,1.22,1.01,1.73l.05.1-.05.07c-.76,1.33-2.02,2.56-3.46,3.44.09.22.67,1.66.78,1.87,1.62-.41,3.39-.42,4.86,0l.09.02.03.08c.21.51.44,1.34.52,1.95v.07s-.05.06-.05.06c-1.08,1.12-2.62,2-4.24,2.45.03.22.23,1.8.27,2.03,1.7.04,3.4.49,4.72,1.27l.08.05v.08c.05.29.07.64.07,1.01M214.76,18.09l2.55,2.84c.36.38.75.34,1.26-.07,3.22-2.53,7.35-4.02,11.75-4.02s8.54,1.49,11.79,4.02c.51.38.89.45,1.26.07l2.55-2.84c.29-.31.29-.75-.26-1.21-4.27-3.33-9.55-5.38-15.35-5.38s-11.12,2.05-15.31,5.4c-.55.45-.52.88-.24,1.19M214.94,30.03c-.28-.18-.58-.39-.82-.28-.2.06-.35.27-.45.61-1.19,4.1-1.19,7.58,0,11.62.08.26.17.53.41.59.2.08.49,0,.86-.26l7.89-5.37c.29-.2.47-.48.47-.76,0-.31-.18-.57-.47-.78l-7.89-5.37ZM216.66,25.32c.04.29.36.43.65.57l8.6,4.18c.34.16.66.16.92.03.24-.16.4-.43.42-.8l.69-9.53c.04-.46-.03-.73-.19-.87-.18-.16-.45-.11-.71-.06-4.12.99-7.12,2.73-10.08,5.82-.24.27-.35.5-.3.68M216.79,47.13c0,.16.11.37.32.58,2.96,3.11,5.96,4.85,10.07,5.81.26.08.52.12.7-.02.19-.14.24-.42.21-.87,0-.01-.7-9.56-.7-9.56-.03-.36-.17-.64-.42-.78-.26-.15-.58-.15-.92,0l-8.59,4.18c-.3.14-.62.3-.67.58,0,.02,0,.05,0,.08M230.33,42.32c3.4,0,6.16-2.76,6.16-6.16s-2.76-6.16-6.16-6.17c-3.4,0-6.16,2.77-6.16,6.17s2.76,6.16,6.16,6.16M232.93,53.36c.15.11.38.15.75.06,4.11-.99,7.12-2.73,10.05-5.81.18-.2.37-.41.31-.64-.05-.22-.24-.42-.64-.61l-8.61-4.18c-.33-.15-.64-.15-.91-.02-.25.16-.41.43-.43.81l-.7,9.53c0,.31-.04.67.17.86M245.77,42.25c.26.17.55.37.82.27.18-.06.34-.26.44-.62,1.2-4.08,1.2-7.57,0-11.61-.07-.25-.19-.52-.4-.61-.22-.08-.48.01-.87.27l-7.89,5.37c-.31.21-.46.49-.46.78s.16.57.46.77l7.91,5.38ZM244.03,25.17c.01-.16-.09-.37-.32-.59-2.93-3.1-5.94-4.84-10.07-5.82-.23-.06-.5-.12-.68.04-.19.15-.24.43-.2.86l.68,9.56c.02.36.18.65.43.79.26.15.58.12.91-.04l8.61-4.15c.28-.13.59-.28.65-.57,0-.02.01-.04,0-.08M207.28,42.23l3.66-1.06c.34-.1.63-.46.6-.91-1.31-6.82.36-12.35,4.35-16.79.4-.29.45-.88.06-1.28l-2.66-2.68c-.26-.3-.73-.3-1.13.12-5.1,5.37-7.68,13.61-5.79,22.04.11.4.42.7.91.56M252.82,44.19l-3.67-1.25c-.19-.07-.69-.07-.96.57-2.97,7.11-9.87,11.98-17.86,11.98s-15.03-4.98-17.87-12.09c-.21-.54-.73-.54-.92-.46l-3.65,1.25c-.4.14-.63.49-.43,1,3.59,9.15,12.51,15.62,22.87,15.62s19.32-6.51,22.92-15.65c.19-.48-.04-.82-.43-.96M248.57,19.59c-.36-.44-.96-.38-1.13-.07l-2.65,2.67c-.39.4-.35,1,.05,1.28,4.01,4.43,5.68,9.95,4.37,16.79-.03.45.25.81.6.91l3.67,1.06c.49.14.8-.16.91-.58,1.89-8.41-.7-16.68-5.81-22.06M240.02,18.59l.85-1.63,2.28-1.06c-.24-.17-.5-.29-.74-.45l-1.57.72-.29-1.7c-.33-.16-.53-.22-.87-.36l.46,2.48-.85,1.61.73.4ZM235.75,55.49c-1.14.25-2.01.46-3.14.63l.1.65c.42-.07.8-.12,1.24-.17l.57,3.15.84-.16-.68-3.15c.43-.11.83-.22,1.25-.32l-.19-.65ZM224.58,56.04v.21c-.06.52-.41,1.05-.99,1.12l.13,1.82c-.27-.06-.57-.15-.85-.27l-.03-1.71-.77-.33-.62,1.51c-.25-.08-.5-.16-.75-.29l.79-1.84.09-.23.64-1.52,1.75.68c.39.14.57.49.6.84M223.85,56.04c-.02-.11-.07-.2-.2-.26l-.98-.36-.22.62-.08.23h0s.89.35.89.35c.24.11.48-.11.57-.35.03-.07.05-.15.03-.23M235.73,16.79c-.31-.09-.54-.13-.89-.23l.63-2.16.46-1.54c.67.17,1.31.38,1.94.59.36.11.55.52.59.95.02.59-.27,1.23-.86,1.36l.23,1.74c-.28-.12-.49-.2-.8-.32l-.2-1.52-.75-.23-.36,1.36ZM236.26,14.75l.87.28c.24.07.56-.31.56-.63,0-.16-.05-.29-.26-.34-.32-.12-.54-.18-.9-.27l-.18.61-.09.35ZM232.02,57.9l.85,2.05c-.28.01-.53.04-.78.07l-.26-.66-1.69.05-.19.69c-.27-.02-.52-.03-.79-.03l.73-2.17.52-1.64.03-.05.86-.04.04.1.69,1.63ZM231.51,58.65l-.3-.75-.31-.81-.27.81-.26.8,1.14-.05ZM236.68,55.16l1.29,3.69c.25-.09.52-.16.78-.28l-1.25-3.68c-.34.12-.5.16-.82.26M217.91,16.23l-.22-.39c.57-.36,1.18-.67,1.77-.99.69-.38,1.67.54,1.6,1.38-.01.15-.05.28-.14.42l1.42,1.03c-.27.13-.47.23-.79.37l-1.24-.91-.69.37.73,1.21c-.28.18-.45.29-.78.48l-1.66-2.97ZM218.76,16.04l.11.18.4.68.82-.43c.08-.04.12-.13.13-.25.02-.37-.25-.87-.64-.64-.3.16-.49.27-.82.45"/><path class="cls-6" d="M254.86,61.11h.24c.35,0,.56-.01.65-.04.09-.02.15-.07.2-.14.04-.07.07-.14.07-.22,0-.09-.03-.16-.07-.22-.05-.06-.12-.12-.2-.14-.09-.03-.3-.04-.64-.04h-.24v.81ZM254.26,62.79v-2.96h.6c.56,0,.88,0,.95,0,.2.01.36.06.47.12.11.06.2.15.27.28.08.13.11.27.11.42,0,.22-.07.4-.21.55-.14.15-.34.24-.59.28.09.03.16.07.21.11.05.04.11.12.2.23.02.02.09.14.22.35l.35.6h-.74l-.25-.48c-.17-.32-.31-.52-.41-.61-.11-.08-.25-.12-.42-.12h-.15v1.22h-.6ZM255.52,59.06c-.38,0-.75.1-1.1.29-.35.19-.63.47-.83.83-.2.36-.3.73-.3,1.13s.1.76.3,1.12c.2.35.47.63.83.83.36.2.73.3,1.12.3s.76-.1,1.11-.3c.35-.2.63-.48.83-.83.2-.35.3-.73.3-1.12s-.1-.77-.31-1.13c-.2-.36-.48-.64-.83-.83-.35-.19-.72-.29-1.11-.29M255.51,58.51c.48,0,.94.12,1.38.36.44.24.78.58,1.04,1.03.25.44.38.91.38,1.4s-.13.95-.37,1.39c-.24.44-.59.79-1.03,1.03-.44.25-.9.37-1.39.37s-.94-.12-1.39-.37c-.44-.24-.78-.59-1.03-1.03-.25-.44-.37-.9-.37-1.39s.13-.96.37-1.4c.25-.45.6-.79,1.04-1.03.44-.24.9-.36,1.37-.36"/></g></g></g></g></g></svg>